<svg width="256" height="256" viewBox="0 0 256 256" fill="none" xmlns="http://www.w3.org/2000/svg">
<g clip-path="url(#clip0)">
<rect width="256" height="256" rx="76.8" fill="#272727"/>
<path d="M266.524 82.2496C263.921 78.7433 259.466 76.6647 254.696 76.6647H146.189C144.597 76.6856 143.019 76.3555 141.557 75.6959C140.095 75.0363 138.783 74.062 137.705 72.8365C136.628 71.611 135.809 70.1618 135.302 68.5832C134.796 67.0047 134.613 65.3323 134.766 63.675L147.367 -45.2074C147.677 -47.8158 147.089 -50.4546 145.709 -52.6513C144.606 -54.2484 143.209 -55.5996 141.6 -56.6258C139.992 -57.6521 138.204 -58.3329 136.341 -58.6285C129.771 -59.7815 123.223 -56.8871 120.508 -51.6159L-30.0226 169.004C-30.9719 170.837 -31.3768 172.924 -31.1858 174.999C-30.9947 177.074 -30.2163 179.043 -28.9501 180.652C-26.355 184.127 -21.8923 186.237 -17.1296 186.237H91.9171C93.5443 186.214 95.1572 186.558 96.6458 187.246C98.1343 187.934 99.4635 188.949 100.543 190.223C101.622 191.497 102.426 192.999 102.9 194.628C103.373 196.256 103.506 197.972 103.288 199.658L86.3444 319.201C86.1015 320.796 86.1901 322.428 86.6043 323.985C87.0185 325.541 87.7484 326.986 88.7445 328.221C90.9735 330.797 93.9769 332.499 97.2573 333.045C98.2287 333.218 99.2121 333.308 100.197 333.312C105.673 333.312 110.78 330.543 113.09 326.056L267.274 94.4548C267.489 94.1009 267.684 93.7343 267.859 93.3567C268.659 91.5616 268.958 89.5669 268.722 87.602C268.485 85.637 267.724 83.7818 266.524 82.2496V82.2496ZM125.668 214.656L132.959 176.346C133.337 174.455 133.246 172.494 132.695 170.65C132.143 168.806 131.15 167.14 129.809 165.812C126.921 163.123 123.174 161.664 119.308 161.725H47.9054C39.0926 161.725 33.5648 151.998 37.93 144.17L89.5545 51.611C95.8248 40.3627 112.67 46.2457 110.9 59.0627L105.44 98.6043C105.195 100.301 105.322 102.034 105.812 103.671C106.302 105.309 107.142 106.808 108.268 108.056C109.719 109.565 111.446 110.754 113.345 111.552C115.244 112.349 117.277 112.74 119.323 112.7H190.366C199.254 112.7 204.774 122.583 200.251 130.404L146.849 222.869C140.271 234.227 123.208 227.607 125.668 214.656Z" fill="#007AFF"/>
</g>
<defs>
<clipPath id="clip0">
<rect width="256" height="256" rx="76.8" fill="white"/>
</clipPath>
</defs>
</svg>
